<mxfile host="app.diagrams.net" modified="2021-06-02T18:23:11.720Z" agent="5.0 (Windows)" etag="PsSvib2hc59u13bQ0Kx3" version="14.7.3" type="github" pages="2">
  <diagram id="9N3Ii6_mkiJ0Fi0xlitn" name="Page-1">
    <mxGraphModel dx="1422" dy="752" grid="1" gridSize="10" guides="1" tooltips="1" connect="1" arrows="1" fold="1" page="1" pageScale="1" pageWidth="827" pageHeight="1169" math="0" shadow="0">
      <root>
        <mxCell id="0" />
        <mxCell id="1" parent="0" />
        <mxCell id="NHUe9T1A2GwH_8S3gkLv-1" value="" style="rounded=0;whiteSpace=wrap;html=1;" parent="1" vertex="1">
          <mxGeometry x="40" y="140" width="780" height="260" as="geometry" />
        </mxCell>
        <mxCell id="NHUe9T1A2GwH_8S3gkLv-2" value="Reducers" style="text;html=1;strokeColor=#6c8ebf;fillColor=#dae8fc;align=center;verticalAlign=middle;whiteSpace=wrap;rounded=0;strokeWidth=1;fontSize=16;fontStyle=1" parent="1" vertex="1">
          <mxGeometry x="40" y="140" width="100" height="40" as="geometry" />
        </mxCell>
        <mxCell id="NHUe9T1A2GwH_8S3gkLv-3" value="" style="rounded=0;whiteSpace=wrap;html=1;fontSize=16;strokeWidth=1;" parent="1" vertex="1">
          <mxGeometry x="40" y="30" width="780" height="60" as="geometry" />
        </mxCell>
        <mxCell id="NHUe9T1A2GwH_8S3gkLv-4" value="API" style="text;html=1;strokeColor=#6c8ebf;fillColor=#dae8fc;align=center;verticalAlign=middle;whiteSpace=wrap;rounded=0;strokeWidth=1;fontSize=16;fontStyle=1" parent="1" vertex="1">
          <mxGeometry x="40" y="30" width="100" height="40" as="geometry" />
        </mxCell>
        <mxCell id="NHUe9T1A2GwH_8S3gkLv-5" value="api" style="rounded=0;whiteSpace=wrap;html=1;fontSize=16;strokeWidth=1;" parent="1" vertex="1">
          <mxGeometry x="190" y="35" width="110" height="50" as="geometry" />
        </mxCell>
        <mxCell id="NHUe9T1A2GwH_8S3gkLv-6" value="&lt;div&gt;api_schedule&lt;/div&gt;" style="rounded=0;whiteSpace=wrap;html=1;fontSize=16;strokeWidth=1;" parent="1" vertex="1">
          <mxGeometry x="310" y="35" width="110" height="50" as="geometry" />
        </mxCell>
        <mxCell id="NHUe9T1A2GwH_8S3gkLv-7" value="api_stat" style="rounded=0;whiteSpace=wrap;html=1;fontSize=16;strokeWidth=1;" parent="1" vertex="1">
          <mxGeometry x="430" y="35" width="110" height="50" as="geometry" />
        </mxCell>
        <mxCell id="NHUe9T1A2GwH_8S3gkLv-8" value="app" style="rounded=0;whiteSpace=wrap;html=1;fontSize=16;strokeWidth=1;" parent="1" vertex="1">
          <mxGeometry x="50" y="190" width="100" height="40" as="geometry" />
        </mxCell>
        <mxCell id="NHUe9T1A2GwH_8S3gkLv-9" value="auth" style="rounded=0;whiteSpace=wrap;html=1;fontSize=16;strokeWidth=1;" parent="1" vertex="1">
          <mxGeometry x="160" y="190" width="100" height="40" as="geometry" />
        </mxCell>
        <mxCell id="NHUe9T1A2GwH_8S3gkLv-10" value="groupe" style="rounded=0;whiteSpace=wrap;html=1;fontSize=16;strokeWidth=1;" parent="1" vertex="1">
          <mxGeometry x="270" y="190" width="100" height="40" as="geometry" />
        </mxCell>
        <mxCell id="NHUe9T1A2GwH_8S3gkLv-11" value="redux" style="rounded=0;whiteSpace=wrap;html=1;fontSize=16;strokeWidth=1;" parent="1" vertex="1">
          <mxGeometry x="400" y="350" width="100" height="40" as="geometry" />
        </mxCell>
        <mxCell id="NHUe9T1A2GwH_8S3gkLv-12" value="schedule" style="rounded=0;whiteSpace=wrap;html=1;fontSize=16;strokeWidth=1;" parent="1" vertex="1">
          <mxGeometry x="380" y="190" width="100" height="40" as="geometry" />
        </mxCell>
        <mxCell id="NHUe9T1A2GwH_8S3gkLv-14" value="score" style="rounded=0;whiteSpace=wrap;html=1;fontSize=16;strokeWidth=1;" parent="1" vertex="1">
          <mxGeometry x="490" y="190" width="100" height="40" as="geometry" />
        </mxCell>
        <mxCell id="NHUe9T1A2GwH_8S3gkLv-15" value="stat" style="rounded=0;whiteSpace=wrap;html=1;fontSize=16;strokeWidth=1;" parent="1" vertex="1">
          <mxGeometry x="600" y="190" width="100" height="40" as="geometry" />
        </mxCell>
        <mxCell id="NHUe9T1A2GwH_8S3gkLv-16" value="stat" style="rounded=0;whiteSpace=wrap;html=1;fontSize=16;strokeWidth=1;" parent="1" vertex="1">
          <mxGeometry x="710" y="190" width="100" height="40" as="geometry" />
        </mxCell>
        <mxCell id="NHUe9T1A2GwH_8S3gkLv-22" value="" style="endArrow=none;html=1;fontSize=16;entryX=0.5;entryY=1;entryDx=0;entryDy=0;" parent="1" target="NHUe9T1A2GwH_8S3gkLv-8" edge="1">
          <mxGeometry width="50" height="50" relative="1" as="geometry">
            <mxPoint x="100" y="310" as="sourcePoint" />
            <mxPoint x="180" y="490" as="targetPoint" />
          </mxGeometry>
        </mxCell>
        <mxCell id="NHUe9T1A2GwH_8S3gkLv-23" value="" style="endArrow=none;html=1;fontSize=16;" parent="1" edge="1">
          <mxGeometry width="50" height="50" relative="1" as="geometry">
            <mxPoint x="100" y="310" as="sourcePoint" />
            <mxPoint x="430" y="310" as="targetPoint" />
          </mxGeometry>
        </mxCell>
        <mxCell id="NHUe9T1A2GwH_8S3gkLv-26" value="" style="endArrow=none;html=1;fontSize=17;strokeWidth=1;entryX=0.5;entryY=1;entryDx=0;entryDy=0;" parent="1" target="NHUe9T1A2GwH_8S3gkLv-9" edge="1">
          <mxGeometry width="50" height="50" relative="1" as="geometry">
            <mxPoint x="210" y="310" as="sourcePoint" />
            <mxPoint x="240" y="280" as="targetPoint" />
          </mxGeometry>
        </mxCell>
        <mxCell id="NHUe9T1A2GwH_8S3gkLv-27" value="" style="endArrow=none;html=1;fontSize=17;strokeWidth=1;entryX=0.5;entryY=1;entryDx=0;entryDy=0;" parent="1" target="NHUe9T1A2GwH_8S3gkLv-10" edge="1">
          <mxGeometry width="50" height="50" relative="1" as="geometry">
            <mxPoint x="320" y="310" as="sourcePoint" />
            <mxPoint x="240" y="280" as="targetPoint" />
          </mxGeometry>
        </mxCell>
        <mxCell id="NHUe9T1A2GwH_8S3gkLv-28" value="" style="endArrow=none;html=1;fontSize=17;strokeWidth=1;entryX=0.5;entryY=1;entryDx=0;entryDy=0;" parent="1" target="NHUe9T1A2GwH_8S3gkLv-12" edge="1">
          <mxGeometry width="50" height="50" relative="1" as="geometry">
            <mxPoint x="430" y="310" as="sourcePoint" />
            <mxPoint x="240" y="280" as="targetPoint" />
          </mxGeometry>
        </mxCell>
        <mxCell id="NHUe9T1A2GwH_8S3gkLv-29" value="" style="endArrow=none;html=1;fontSize=17;strokeWidth=1;" parent="1" edge="1">
          <mxGeometry width="50" height="50" relative="1" as="geometry">
            <mxPoint x="820" y="310" as="sourcePoint" />
            <mxPoint x="430" y="310" as="targetPoint" />
          </mxGeometry>
        </mxCell>
        <mxCell id="NHUe9T1A2GwH_8S3gkLv-30" value="" style="endArrow=none;html=1;fontSize=17;strokeWidth=1;entryX=0.5;entryY=1;entryDx=0;entryDy=0;" parent="1" target="NHUe9T1A2GwH_8S3gkLv-14" edge="1">
          <mxGeometry width="50" height="50" relative="1" as="geometry">
            <mxPoint x="540" y="310" as="sourcePoint" />
            <mxPoint x="450" y="280" as="targetPoint" />
          </mxGeometry>
        </mxCell>
        <mxCell id="NHUe9T1A2GwH_8S3gkLv-31" value="" style="endArrow=none;html=1;fontSize=17;strokeWidth=1;entryX=0.5;entryY=1;entryDx=0;entryDy=0;" parent="1" target="NHUe9T1A2GwH_8S3gkLv-15" edge="1">
          <mxGeometry width="50" height="50" relative="1" as="geometry">
            <mxPoint x="650" y="310" as="sourcePoint" />
            <mxPoint x="450" y="280" as="targetPoint" />
          </mxGeometry>
        </mxCell>
        <mxCell id="NHUe9T1A2GwH_8S3gkLv-32" value="" style="endArrow=none;html=1;fontSize=17;strokeWidth=1;exitX=0.5;exitY=1;exitDx=0;exitDy=0;" parent="1" source="NHUe9T1A2GwH_8S3gkLv-16" edge="1">
          <mxGeometry width="50" height="50" relative="1" as="geometry">
            <mxPoint x="400" y="330" as="sourcePoint" />
            <mxPoint x="760" y="310" as="targetPoint" />
          </mxGeometry>
        </mxCell>
        <mxCell id="NHUe9T1A2GwH_8S3gkLv-33" value="" style="endArrow=classic;html=1;fontSize=17;strokeWidth=1;entryX=0.5;entryY=0;entryDx=0;entryDy=0;" parent="1" target="NHUe9T1A2GwH_8S3gkLv-11" edge="1">
          <mxGeometry width="50" height="50" relative="1" as="geometry">
            <mxPoint x="450" y="310" as="sourcePoint" />
            <mxPoint x="450" y="280" as="targetPoint" />
          </mxGeometry>
        </mxCell>
        <mxCell id="NHUe9T1A2GwH_8S3gkLv-34" value="" style="shape=flexArrow;endArrow=classic;startArrow=classic;html=1;fontSize=17;strokeWidth=1;entryX=0.5;entryY=1;entryDx=0;entryDy=0;" parent="1" source="NHUe9T1A2GwH_8S3gkLv-1" target="NHUe9T1A2GwH_8S3gkLv-3" edge="1">
          <mxGeometry width="100" height="100" relative="1" as="geometry">
            <mxPoint x="350" y="380" as="sourcePoint" />
            <mxPoint x="450" y="280" as="targetPoint" />
          </mxGeometry>
        </mxCell>
        <mxCell id="NHUe9T1A2GwH_8S3gkLv-35" value="" style="rounded=0;whiteSpace=wrap;html=1;" parent="1" vertex="1">
          <mxGeometry x="40" y="455" width="780" height="215" as="geometry" />
        </mxCell>
        <mxCell id="NHUe9T1A2GwH_8S3gkLv-36" value="Views" style="text;html=1;strokeColor=#6c8ebf;fillColor=#dae8fc;align=center;verticalAlign=middle;whiteSpace=wrap;rounded=0;strokeWidth=1;fontSize=16;fontStyle=1" parent="1" vertex="1">
          <mxGeometry x="40" y="455" width="100" height="40" as="geometry" />
        </mxCell>
        <mxCell id="NHUe9T1A2GwH_8S3gkLv-41" value="Footer" style="rounded=0;whiteSpace=wrap;html=1;fontSize=16;strokeWidth=1;" parent="1" vertex="1">
          <mxGeometry x="50" y="500" width="100" height="40" as="geometry" />
        </mxCell>
        <mxCell id="NHUe9T1A2GwH_8S3gkLv-42" value="Groupe" style="rounded=0;whiteSpace=wrap;html=1;fontSize=16;strokeWidth=1;" parent="1" vertex="1">
          <mxGeometry x="160" y="500" width="100" height="40" as="geometry" />
        </mxCell>
        <mxCell id="NHUe9T1A2GwH_8S3gkLv-43" value="Header" style="rounded=0;whiteSpace=wrap;html=1;fontSize=16;strokeWidth=1;" parent="1" vertex="1">
          <mxGeometry x="270" y="500" width="100" height="40" as="geometry" />
        </mxCell>
        <mxCell id="NHUe9T1A2GwH_8S3gkLv-44" value="Login" style="rounded=0;whiteSpace=wrap;html=1;fontSize=16;strokeWidth=1;" parent="1" vertex="1">
          <mxGeometry x="380" y="500" width="100" height="40" as="geometry" />
        </mxCell>
        <mxCell id="NHUe9T1A2GwH_8S3gkLv-45" value="Schedule" style="rounded=0;whiteSpace=wrap;html=1;fontSize=16;strokeWidth=1;" parent="1" vertex="1">
          <mxGeometry x="490" y="500" width="100" height="40" as="geometry" />
        </mxCell>
        <mxCell id="NHUe9T1A2GwH_8S3gkLv-46" value="Score" style="rounded=0;whiteSpace=wrap;html=1;fontSize=16;strokeWidth=1;" parent="1" vertex="1">
          <mxGeometry x="600" y="500" width="100" height="40" as="geometry" />
        </mxCell>
        <mxCell id="NHUe9T1A2GwH_8S3gkLv-48" value="Stats" style="rounded=0;whiteSpace=wrap;html=1;fontSize=16;strokeWidth=1;" parent="1" vertex="1">
          <mxGeometry x="710" y="500" width="100" height="40" as="geometry" />
        </mxCell>
        <mxCell id="NHUe9T1A2GwH_8S3gkLv-49" value="Students" style="rounded=0;whiteSpace=wrap;html=1;fontSize=16;strokeWidth=1;" parent="1" vertex="1">
          <mxGeometry x="50" y="580" width="100" height="40" as="geometry" />
        </mxCell>
        <mxCell id="NHUe9T1A2GwH_8S3gkLv-50" value="Subjects" style="rounded=0;whiteSpace=wrap;html=1;fontSize=16;strokeWidth=1;" parent="1" vertex="1">
          <mxGeometry x="160" y="580" width="100" height="40" as="geometry" />
        </mxCell>
        <mxCell id="NHUe9T1A2GwH_8S3gkLv-51" value="SubjectToGroup" style="rounded=0;whiteSpace=wrap;html=1;fontSize=16;strokeWidth=1;" parent="1" vertex="1">
          <mxGeometry x="270" y="580" width="210" height="40" as="geometry" />
        </mxCell>
        <mxCell id="NHUe9T1A2GwH_8S3gkLv-53" value="Teacher" style="rounded=0;whiteSpace=wrap;html=1;fontSize=16;strokeWidth=1;" parent="1" vertex="1">
          <mxGeometry x="490" y="580" width="100" height="40" as="geometry" />
        </mxCell>
        <mxCell id="NHUe9T1A2GwH_8S3gkLv-54" value="Users" style="rounded=0;whiteSpace=wrap;html=1;fontSize=16;strokeWidth=1;" parent="1" vertex="1">
          <mxGeometry x="600" y="580" width="100" height="40" as="geometry" />
        </mxCell>
        <mxCell id="NHUe9T1A2GwH_8S3gkLv-55" value="Visitor" style="rounded=0;whiteSpace=wrap;html=1;fontSize=16;strokeWidth=1;" parent="1" vertex="1">
          <mxGeometry x="710" y="580" width="100" height="40" as="geometry" />
        </mxCell>
        <mxCell id="NHUe9T1A2GwH_8S3gkLv-56" value="" style="shape=flexArrow;endArrow=classic;startArrow=classic;html=1;fontSize=17;strokeWidth=1;exitX=0.5;exitY=0;exitDx=0;exitDy=0;entryX=0.5;entryY=1;entryDx=0;entryDy=0;" parent="1" source="NHUe9T1A2GwH_8S3gkLv-35" target="NHUe9T1A2GwH_8S3gkLv-1" edge="1">
          <mxGeometry width="100" height="100" relative="1" as="geometry">
            <mxPoint x="580" y="440" as="sourcePoint" />
            <mxPoint x="680" y="340" as="targetPoint" />
          </mxGeometry>
        </mxCell>
      </root>
    </mxGraphModel>
  </diagram>
  <diagram id="uhO-ru1XyIBZYnLNuViw" name="Page-2">
    <mxGraphModel dx="1185" dy="627" grid="1" gridSize="10" guides="1" tooltips="1" connect="1" arrows="1" fold="1" page="1" pageScale="1" pageWidth="827" pageHeight="1169" math="0" shadow="0">
      <root>
        <mxCell id="UMlWgSMDCPW2ygMLFZuc-0" />
        <mxCell id="UMlWgSMDCPW2ygMLFZuc-1" parent="UMlWgSMDCPW2ygMLFZuc-0" />
        <mxCell id="UMlWgSMDCPW2ygMLFZuc-8" style="edgeStyle=orthogonalEdgeStyle;rounded=0;orthogonalLoop=1;jettySize=auto;html=1;entryX=0.5;entryY=0;entryDx=0;entryDy=0;" edge="1" parent="UMlWgSMDCPW2ygMLFZuc-1" source="UMlWgSMDCPW2ygMLFZuc-3" target="UMlWgSMDCPW2ygMLFZuc-6">
          <mxGeometry relative="1" as="geometry" />
        </mxCell>
        <mxCell id="UMlWgSMDCPW2ygMLFZuc-3" value="Початок" style="rounded=1;whiteSpace=wrap;html=1;" vertex="1" parent="UMlWgSMDCPW2ygMLFZuc-1">
          <mxGeometry x="320" y="40" width="120" height="40" as="geometry" />
        </mxCell>
        <mxCell id="UMlWgSMDCPW2ygMLFZuc-10" style="edgeStyle=orthogonalEdgeStyle;rounded=0;orthogonalLoop=1;jettySize=auto;html=1;entryX=0.5;entryY=0;entryDx=0;entryDy=0;" edge="1" parent="UMlWgSMDCPW2ygMLFZuc-1" source="UMlWgSMDCPW2ygMLFZuc-4" target="UMlWgSMDCPW2ygMLFZuc-7">
          <mxGeometry relative="1" as="geometry" />
        </mxCell>
        <mxCell id="UMlWgSMDCPW2ygMLFZuc-4" value="Конвертування інформації в JSON" style="rounded=0;whiteSpace=wrap;html=1;" vertex="1" parent="UMlWgSMDCPW2ygMLFZuc-1">
          <mxGeometry x="320" y="210" width="120" height="40" as="geometry" />
        </mxCell>
        <mxCell id="UMlWgSMDCPW2ygMLFZuc-9" style="edgeStyle=orthogonalEdgeStyle;rounded=0;orthogonalLoop=1;jettySize=auto;html=1;entryX=0.5;entryY=0;entryDx=0;entryDy=0;" edge="1" parent="UMlWgSMDCPW2ygMLFZuc-1" source="UMlWgSMDCPW2ygMLFZuc-6" target="UMlWgSMDCPW2ygMLFZuc-4">
          <mxGeometry relative="1" as="geometry" />
        </mxCell>
        <mxCell id="UMlWgSMDCPW2ygMLFZuc-6" value="Зчитування інформації" style="rounded=0;whiteSpace=wrap;html=1;" vertex="1" parent="UMlWgSMDCPW2ygMLFZuc-1">
          <mxGeometry x="320" y="130" width="120" height="40" as="geometry" />
        </mxCell>
        <mxCell id="UMlWgSMDCPW2ygMLFZuc-13" style="edgeStyle=orthogonalEdgeStyle;rounded=0;orthogonalLoop=1;jettySize=auto;html=1;entryX=0.5;entryY=0;entryDx=0;entryDy=0;" edge="1" parent="UMlWgSMDCPW2ygMLFZuc-1" source="UMlWgSMDCPW2ygMLFZuc-7" target="UMlWgSMDCPW2ygMLFZuc-11">
          <mxGeometry relative="1" as="geometry" />
        </mxCell>
        <mxCell id="UMlWgSMDCPW2ygMLFZuc-7" value="Відправка на сервер" style="rounded=0;whiteSpace=wrap;html=1;" vertex="1" parent="UMlWgSMDCPW2ygMLFZuc-1">
          <mxGeometry x="320" y="290" width="120" height="40" as="geometry" />
        </mxCell>
        <mxCell id="UMlWgSMDCPW2ygMLFZuc-25" style="edgeStyle=orthogonalEdgeStyle;rounded=0;orthogonalLoop=1;jettySize=auto;html=1;entryX=0.558;entryY=1.043;entryDx=0;entryDy=0;entryPerimeter=0;" edge="1" parent="UMlWgSMDCPW2ygMLFZuc-1" source="UMlWgSMDCPW2ygMLFZuc-11" target="UMlWgSMDCPW2ygMLFZuc-24">
          <mxGeometry relative="1" as="geometry">
            <mxPoint x="625" y="380" as="targetPoint" />
          </mxGeometry>
        </mxCell>
        <mxCell id="UMlWgSMDCPW2ygMLFZuc-11" value="Прийшла відповідь від сервера" style="rhombus;whiteSpace=wrap;html=1;" vertex="1" parent="UMlWgSMDCPW2ygMLFZuc-1">
          <mxGeometry x="272" y="370" width="216" height="80" as="geometry" />
        </mxCell>
        <mxCell id="UMlWgSMDCPW2ygMLFZuc-18" value="" style="endArrow=none;html=1;exitX=0;exitY=0.5;exitDx=0;exitDy=0;" edge="1" parent="UMlWgSMDCPW2ygMLFZuc-1" source="UMlWgSMDCPW2ygMLFZuc-11">
          <mxGeometry width="50" height="50" relative="1" as="geometry">
            <mxPoint x="390" y="440" as="sourcePoint" />
            <mxPoint x="130" y="410" as="targetPoint" />
          </mxGeometry>
        </mxCell>
        <mxCell id="UMlWgSMDCPW2ygMLFZuc-19" value="" style="endArrow=none;html=1;" edge="1" parent="UMlWgSMDCPW2ygMLFZuc-1">
          <mxGeometry width="50" height="50" relative="1" as="geometry">
            <mxPoint x="130" y="410" as="sourcePoint" />
            <mxPoint x="130" y="60" as="targetPoint" />
          </mxGeometry>
        </mxCell>
        <mxCell id="UMlWgSMDCPW2ygMLFZuc-20" value="" style="endArrow=classic;html=1;entryX=0;entryY=0.5;entryDx=0;entryDy=0;" edge="1" parent="UMlWgSMDCPW2ygMLFZuc-1" target="UMlWgSMDCPW2ygMLFZuc-3">
          <mxGeometry width="50" height="50" relative="1" as="geometry">
            <mxPoint x="130" y="60" as="sourcePoint" />
            <mxPoint x="440" y="390" as="targetPoint" />
          </mxGeometry>
        </mxCell>
        <mxCell id="UMlWgSMDCPW2ygMLFZuc-21" value="Так" style="text;html=1;strokeColor=none;fillColor=none;align=center;verticalAlign=middle;whiteSpace=wrap;rounded=0;" vertex="1" parent="UMlWgSMDCPW2ygMLFZuc-1">
          <mxGeometry x="190" y="390" width="40" height="20" as="geometry" />
        </mxCell>
        <mxCell id="UMlWgSMDCPW2ygMLFZuc-24" value="Збереження інформації в базі даних" style="rounded=0;whiteSpace=wrap;html=1;" vertex="1" parent="UMlWgSMDCPW2ygMLFZuc-1">
          <mxGeometry x="570" y="280" width="130" height="50" as="geometry" />
        </mxCell>
        <mxCell id="UMlWgSMDCPW2ygMLFZuc-27" value="" style="endArrow=none;html=1;exitX=0.546;exitY=-0.012;exitDx=0;exitDy=0;exitPerimeter=0;" edge="1" parent="UMlWgSMDCPW2ygMLFZuc-1" source="UMlWgSMDCPW2ygMLFZuc-24">
          <mxGeometry width="50" height="50" relative="1" as="geometry">
            <mxPoint x="640" y="270" as="sourcePoint" />
            <mxPoint x="640" y="60" as="targetPoint" />
          </mxGeometry>
        </mxCell>
        <mxCell id="UMlWgSMDCPW2ygMLFZuc-29" value="" style="endArrow=classic;html=1;entryX=1;entryY=0.5;entryDx=0;entryDy=0;" edge="1" parent="UMlWgSMDCPW2ygMLFZuc-1" target="UMlWgSMDCPW2ygMLFZuc-3">
          <mxGeometry width="50" height="50" relative="1" as="geometry">
            <mxPoint x="640" y="60" as="sourcePoint" />
            <mxPoint x="400" y="320" as="targetPoint" />
          </mxGeometry>
        </mxCell>
      </root>
    </mxGraphModel>
  </diagram>
</mxfile>
